<svg width="720" height="720" xmlns="http://www.w3.org/2000/svg" xmlns:xlink="http://www.w3.org/1999/xlink" xml:space="preserve" overflow="hidden"><defs><clipPath id="clip0"><rect x="280" y="0" width="720" height="720"/></clipPath><clipPath id="clip1"><rect x="280" y="-1" width="720" height="714"/></clipPath></defs><g clip-path="url(#clip0)" transform="translate(-280 0)"><g clip-path="url(#clip1)"><g><path d="M226.993-7.99921 1307-7.99921 1307 712.001 226.993 712.001Z" fill="#E30A17"/><path d="M727.998 352.001 890.816 299.105 790.183 437.597 790.183 266.405 890.816 404.897ZM739.098 448.253C685.939 532.257 574.745 557.263 490.74 504.105 406.735 450.946 381.729 339.753 434.888 255.749 488.047 171.744 599.24 146.739 683.246 199.897 705.769 214.15 724.846 233.226 739.098 255.749 685.939 196.596 594.892 191.737 535.739 244.895 476.586 298.054 471.726 389.1 524.885 448.253 578.044 507.405 669.092 512.265 728.245 459.106 732.053 455.684 735.676 452.061 739.098 448.253Z" fill="#FFFFFF"/></g></g></g></svg>